HIERARCHY
ROOT Hips
{
	OFFSET -0.001795 -0.223333 0.028219
	CHANNELS 6 Xposition Yposition Zposition Zrotation Yrotation Xrotation 
	JOINT LeftUpLeg
	{
		OFFSET 0.069520 -0.091406 -0.006815
		CHANNELS 3 Zrotation Yrotation Xrotation
		JOINT LeftLeg
		{
			OFFSET 0.034277 -0.375199 -0.004496
			CHANNELS 3 Zrotation Yrotation Xrotation
			JOINT LeftFoot
			{
				OFFSET -0.013596 -0.397961 -0.043693
				CHANNELS 3 Zrotation Yrotation Xrotation
				JOINT LeftToe
				{
					OFFSET 0.026358 -0.055791 0.119288
					CHANNELS 3 Zrotation Yrotation Xrotation
					End Site
					{
						OFFSET 0.000000 0.000000 0.000000
					}
				}
			}
		}
	}
	JOINT RightUpLeg
	{
		OFFSET -0.067670 -0.090522 -0.004320
		CHANNELS 3 Zrotation Yrotation Xrotation
		JOINT RightLeg
		{
			OFFSET -0.038290 -0.382569 -0.008850
			CHANNELS 3 Zrotation Yrotation Xrotation
			JOINT RightFoot
			{
				OFFSET 0.015774 -0.398415 -0.042312
				CHANNELS 3 Zrotation Yrotation Xrotation
				JOINT RightToe
				{
					OFFSET -0.025372 -0.048144 0.123348
					CHANNELS 3 Zrotation Yrotation Xrotation
					End Site
					{
						OFFSET 0.000000 0.000000 0.000000
					}
				}
			}
		}
	}
	JOINT Spine
	{
		OFFSET -0.002533 0.108963 -0.026696
		CHANNELS 3 Zrotation Yrotation Xrotation
		JOINT Spine1
		{
			OFFSET 0.005487 0.135180 0.001092
			CHANNELS 3 Zrotation Yrotation Xrotation
			JOINT Spine2
			{
				OFFSET 0.001457 0.052922 0.025425
				CHANNELS 3 Zrotation Yrotation Xrotation
				JOINT Neck
				{
					OFFSET -0.002778 0.213870 -0.042857
					CHANNELS 3 Zrotation Yrotation Xrotation
					JOINT Head
					{
						OFFSET 0.005152 0.064970 0.051349
						CHANNELS 3 Zrotation Yrotation Xrotation
						End Site
						{
							OFFSET 0.000000 0.000000 0.000000
						}
					}
				}
				JOINT LeftShoulder
				{
					OFFSET 0.078845 0.121749 -0.034090
					CHANNELS 3 Zrotation Yrotation Xrotation
					JOINT LeftArm
					{
						OFFSET 0.090977 0.030469 -0.008868
						CHANNELS 3 Zrotation Yrotation Xrotation
						JOINT LeftForeArm
						{
							OFFSET 0.259612 -0.012772 -0.027456
							CHANNELS 3 Zrotation Yrotation Xrotation
							JOINT LeftHand
							{
								OFFSET 0.249234 0.008986 -0.001171
								CHANNELS 3 Zrotation Yrotation Xrotation
								End Site
								{
									OFFSET 0.000000 0.000000 0.000000
								}
							}
						}
					}
				}
				JOINT RightShoulder
				{
					OFFSET -0.081759 0.118833 -0.038615
					CHANNELS 3 Zrotation Yrotation Xrotation
					JOINT RightArm
					{
						OFFSET -0.096012 0.032551 -0.009143
						CHANNELS 3 Zrotation Yrotation Xrotation
						JOINT RightForeArm
						{
							OFFSET -0.253742 -0.013329 -0.021401
							CHANNELS 3 Zrotation Yrotation Xrotation
							JOINT RightHand
							{
								OFFSET -0.255298 0.007772 -0.005559
								CHANNELS 3 Zrotation Yrotation Xrotation
								End Site
								{
									OFFSET 0.000000 0.000000 0.000000
								}
							}
						}
					}
				}
			}
		}
	}
}
MOTION
Frames: 10
Frame Time: 0.050000
0.000000 0.943873 0.000000 -4.065235 2.360893 2.752309 8.907477 -0.307658 -6.602037 -4.996039 0.518972 0.810695 10.746031 21.599966 11.814867 0.000000 0.000000 0.000000 -3.562937 0.517358 -6.100363 4.539699 -0.511320 2.889991 -11.202285 -24.649715 16.780739 0.000000 0.000000 0.000000 -4.560222 0.020809 10.741876 2.894210 -0.126383 -22.340361 0.026663 -0.370699 28.995397 -0.823094 2.122220 -23.654264 0.000000 0.000000 0.000000 -8.798282 -1.459167 0.149637 -52.136717 -0.889667 -8.263814 -92.532157 -37.297075 44.025514 0.000000 0.000000 0.000000 2.650826 5.505962 2.026550 55.343635 -5.692223 -10.185125 86.998766 45.249874 47.742084 0.000000 0.000000 0.000000 
-0.000484 0.944420 -0.000610 -4.336767 2.703260 2.872377 8.926756 -0.310639 -6.097388 -4.035296 0.410422 -0.103034 10.648993 21.465294 12.229718 0.000000 0.000000 0.000000 -2.546843 0.464043 -5.028816 2.950470 -0.315107 1.151639 -10.324731 -23.174213 17.414938 0.000000 0.000000 0.000000 -4.431235 0.006748 10.345004 1.734090 0.168238 -22.122800 0.909118 -0.504003 28.045806 -2.071878 2.935051 -25.030074 0.000000 0.000000 0.000000 -9.128867 0.068136 -0.579209 -48.883907 -0.917122 -7.637484 -97.262484 -33.928372 42.933486 0.000000 0.000000 0.000000 0.111584 5.339111 1.884458 55.499555 -8.064946 -11.058788 92.847733 43.181224 49.780628 0.000000 0.000000 0.000000 
-0.000405 0.945086 -0.001086 -4.517262 3.289422 2.723344 9.081431 -0.318043 -6.082955 -3.929801 0.394117 0.433065 9.894656 20.368844 11.649247 0.000000 0.000000 0.000000 -2.537692 0.431017 -4.639355 2.824570 -0.310017 0.688903 -10.323252 -23.092138 17.717681 0.000000 0.000000 0.000000 -4.520672 0.012437 9.760993 2.022119 0.071262 -21.205269 -0.168483 0.709763 27.711933 0.260413 1.788976 -24.414136 0.000000 0.000000 0.000000 -8.635326 -0.308046 -0.564065 -48.442213 0.484635 -8.110948 -94.702788 -35.551197 42.027004 0.000000 0.000000 0.000000 0.823348 3.719514 1.347372 54.354161 -9.256785 -11.137416 92.506649 41.524474 48.300182 0.000000 0.000000 0.000000 
0.000027 0.945319 -0.001317 -4.835669 2.788778 2.856876 9.151174 -0.304433 -5.865644 -3.983570 0.403920 -0.437532 10.349939 21.032519 12.681824 0.000000 0.000000 0.000000 -2.395792 0.454967 -4.867528 2.508581 -0.265693 0.890047 -10.332363 -23.075693 18.642872 0.000000 0.000000 0.000000 -4.635772 0.037298 8.709430 1.869507 0.101708 -21.237582 -0.331426 1.031498 28.494603 0.390408 1.674618 -23.673721 0.000000 0.000000 0.000000 -8.838503 0.070358 -0.742250 -46.523045 1.142738 -8.055287 -95.523087 -36.329902 43.240227 0.000000 0.000000 0.000000 -0.631013 3.829244 1.337264 53.040899 -9.739737 -11.086844 95.495489 39.549224 48.326278 0.000000 0.000000 0.000000 
0.000838 0.945998 -0.001222 -5.001769 2.578339 2.545566 9.047921 -0.290615 -5.435208 -3.656631 0.373553 -0.103541 9.995551 20.491128 12.047866 0.000000 0.000000 0.000000 -2.452901 0.434706 -4.639106 1.952268 -0.202036 0.705762 -9.584078 -21.931121 18.729753 0.000000 0.000000 0.000000 -4.854568 0.054302 8.606694 1.878702 0.070500 -20.610744 -0.724452 1.210896 28.189156 0.626417 1.475666 -22.590184 0.000000 0.000000 0.000000 -7.841015 0.603313 -0.891728 -46.491251 2.041944 -8.347277 -93.617841 -37.138479 42.738789 0.000000 0.000000 0.000000 -1.063109 3.489149 1.204520 51.440006 -9.984396 -10.778095 95.815631 36.937920 45.311695 0.000000 0.000000 0.000000 
0.002060 0.946366 -0.001164 -5.103441 2.515156 2.641196 9.296081 -0.283412 -5.122476 -3.999748 0.407760 -0.849884 10.119532 20.674050 12.410260 0.000000 0.000000 0.000000 -2.391700 0.412949 -4.340194 1.433189 -0.156028 0.109828 -9.194487 -21.322954 18.955636 0.000000 0.000000 0.000000 -5.114859 0.080116 8.075020 1.580973 0.161879 -20.994260 -0.577962 1.384926 28.842851 0.970468 1.267535 -22.349783 0.000000 0.000000 0.000000 -7.507437 0.630513 -0.879532 -45.087001 2.501124 -8.282767 -92.370355 -37.909868 42.506968 0.000000 0.000000 0.000000 -2.182233 3.830421 1.275529 51.424721 -11.122844 -11.225197 96.277073 35.571664 44.175553 0.000000 0.000000 0.000000 
0.003512 0.946401 -0.001103 -5.160430 2.413804 2.623204 9.292936 -0.280737 -5.137338 -4.418031 0.449115 -0.638347 10.532032 21.274295 12.538346 0.000000 0.000000 0.000000 -2.409596 0.411594 -4.321741 1.334933 -0.143063 0.171278 -9.158059 -21.278177 18.945633 0.000000 0.000000 0.000000 -5.435217 0.107539 7.992035 1.658681 0.129960 -20.745800 -0.688806 1.753150 28.676534 1.432572 1.012441 -22.086820 0.000000 0.000000 0.000000 -7.244375 0.692409 -0.911933 -44.059178 3.149314 -8.286261 -90.905546 -38.211988 41.542607 0.000000 0.000000 0.000000 -2.451110 3.775729 1.240910 50.457346 -11.944573 -11.261841 96.634760 34.243161 42.879483 0.000000 0.000000 0.000000 
0.005174 0.946186 -0.001126 -5.397447 2.156981 2.815598 9.116814 -0.280834 -5.073027 -4.568823 0.464757 -0.822868 10.842287 21.716971 12.169495 0.000000 0.000000 0.000000 -2.350439 0.421661 -4.405218 1.216952 -0.133984 -0.002884 -8.906884 -20.931116 18.657908 0.000000 0.000000 0.000000 -5.479412 0.115841 7.861092 1.551060 0.159015 -20.903802 -0.424973 2.040543 28.706056 1.937118 0.649091 -21.286851 0.000000 0.000000 0.000000 -8.233509 0.582263 -0.976881 -42.501614 3.703949 -8.144888 -90.048444 -38.284949 40.825605 0.000000 0.000000 0.000000 -2.732110 4.084620 1.326548 50.677285 -12.787867 -11.621456 96.747862 33.705409 42.385469 0.000000 0.000000 0.000000 
0.006919 0.945932 -0.000897 -5.595083 1.652569 2.768869 9.020934 -0.269876 -5.098781 -4.680934 0.482702 -0.559053 11.205797 22.235762 11.890833 0.000000 0.000000 0.000000 -2.425663 0.423151 -4.414964 1.309953 -0.133765 0.325485 -8.868858 -20.929746 18.608227 0.000000 0.000000 0.000000 -5.874939 0.153337 8.120903 1.893091 0.066670 -21.143401 -0.309535 2.604049 28.660680 2.139545 0.540562 -20.989739 0.000000 0.000000 0.000000 -8.478330 0.565839 -1.022552 -41.778556 3.600095 -7.960440 -89.911283 -38.475101 40.747532 0.000000 0.000000 0.000000 -2.545074 4.570544 1.488949 50.523040 -12.865713 -11.596817 96.824300 33.815644 42.659233 0.000000 0.000000 0.000000 
0.008654 0.945280 -0.000360 -5.755787 1.178705 2.813545 8.934651 -0.259260 -4.965417 -4.986091 0.518126 -0.600017 11.717205 22.980035 11.733311 0.000000 0.000000 0.000000 -2.341269 0.424448 -4.392152 1.249710 -0.112508 0.793306 -8.606293 -20.587607 18.205392 0.000000 0.000000 0.000000 -6.188114 0.185097 8.171243 2.061364 0.027955 -21.578859 -0.099884 3.338382 29.044106 2.455491 0.408183 -20.921169 0.000000 0.000000 0.000000 -8.292434 0.841953 -1.166729 -41.271088 3.291480 -7.787755 -91.289914 -37.918035 40.799277 0.000000 0.000000 0.000000 -2.332789 4.515756 1.470012 50.613571 -12.646361 -11.523845 96.319906 33.656687 42.406949 0.000000 0.000000 0.000000 
